<svg width="193" height="172" viewBox="0 0 193 172" fill="none" xmlns="http://www.w3.org/2000/svg">
<g clip-path="url(#clip0)">
<path d="M114.757 152.544C113.423 150.479 111.616 148.967 109.345 148.402C107.364 147.908 105.328 147.992 103.315 148.01L77.8587 148.227C75.6786 148.245 73.5883 150.333 73.6896 152.835C73.7901 155.316 75.5219 157.463 77.8587 157.443C85.3156 157.38 92.7724 157.316 100.229 157.253C101.987 157.238 103.746 157.203 105.504 157.209C105.899 157.21 106.292 157.233 106.687 157.238C106.782 157.24 106.851 157.239 106.9 157.236C106.912 157.24 106.922 157.244 106.938 157.249C107.144 157.312 107.355 157.355 107.562 157.414C107.49 157.416 107.696 157.559 107.8 157.607C107.814 157.638 107.845 157.693 107.896 157.779C107.966 157.925 108.176 158.371 108.185 158.357C108.5 159.238 108.76 160.142 108.963 161.063C109.448 163.093 109.554 163.517 109.624 165.421C109.712 167.827 111.478 170.144 113.793 170.03C115.976 169.921 118.057 168.001 117.962 165.421C117.803 161.074 117.113 156.19 114.757 152.544Z" fill="#E6E6E6"/>
<path d="M79.3551 162.943C78.877 159.741 78.408 156.536 77.9206 153.335C77.426 150.088 76.4159 147.114 74.1298 144.983C73.5189 144.414 72.8856 143.882 72.2495 143.352C72.0259 143.166 71.8026 142.979 71.5816 142.789C71.5683 142.778 71.5599 142.77 71.5485 142.761C71.5242 142.737 71.495 142.71 71.4558 142.673C70.503 141.782 69.5823 140.851 68.7053 139.861C67.9265 138.982 67.1818 138.066 66.471 137.112C66.2934 136.874 66.118 136.634 65.945 136.391C65.9152 136.349 65.7549 136.12 65.6493 135.971C65.5511 135.821 65.3716 135.551 65.3414 135.504C65.1393 135.188 64.9407 134.869 64.7457 134.547C63.4178 132.348 62.268 130.024 61.3095 127.602C61.2145 127.361 61.1217 127.12 61.0312 126.877C61.0069 126.802 60.9754 126.707 60.9337 126.58C60.7406 125.993 60.5478 125.407 60.3712 124.813C59.996 123.551 59.6734 122.271 59.4035 120.972C59.27 120.33 59.1499 119.686 59.043 119.038C58.9879 118.704 58.9364 118.37 58.8884 118.036C58.8805 117.98 58.8337 117.619 58.8061 117.415C58.7858 117.21 58.7478 116.848 58.7428 116.791C58.7122 116.454 58.6851 116.117 58.6615 115.779C58.6081 115.018 58.5721 114.257 58.5533 113.494C58.5213 112.138 58.5432 110.782 58.6192 109.426C58.6625 108.665 58.7241 107.905 58.7999 107.147C58.8045 107.1 58.808 107.063 58.8113 107.029C58.8159 106.996 58.8213 106.957 58.8276 106.909C58.8837 106.49 58.9428 106.072 59.0088 105.655C59.2589 104.071 59.5841 102.502 59.9832 100.956C60.1721 100.225 60.3773 99.4992 60.5988 98.7798C60.6976 98.4604 60.7994 98.1422 60.9045 97.8253C60.8976 97.8458 61.2125 96.9567 61.2167 96.9268C62.4661 93.6638 64.5097 90.6891 64.5125 86.9825C64.5144 84.4728 62.5936 82.0688 60.3434 82.1848C59.2214 82.2314 58.1597 82.7577 57.382 83.6527C56.6043 84.5477 56.1712 85.7415 56.1742 86.9825C56.1742 87.0388 56.1739 87.0869 56.1738 87.1336C56.1528 87.2117 56.1353 87.2769 56.1195 87.3345C55.8758 87.9198 55.5773 88.4759 55.3099 89.0467C54.5775 90.6087 53.9525 92.222 53.3587 93.859C52.3866 96.5249 51.6425 99.2854 51.1362 102.105C50.0356 108.282 49.9502 114.627 50.884 120.838C52.5005 131.729 57.8313 142.154 65.2423 149.162C65.8855 149.77 66.5443 150.357 67.2093 150.933C67.4845 151.171 67.762 151.405 68.0409 151.638C68.1727 151.747 68.7188 152.223 68.4786 151.993C68.9952 152.48 69.2126 152.725 69.3453 153.084C69.3645 153.167 69.3907 153.279 69.4262 153.433C69.5198 153.838 69.6086 154.242 69.6824 154.652C70.3274 158.238 70.7758 161.885 71.3146 165.494C71.685 167.974 74.4472 169.589 76.4433 168.845C78.7665 167.98 79.752 165.601 79.3551 162.943Z" fill="#E6E6E6"/>
<path d="M115.179 172.245C113.428 172.25 111.747 171.488 110.504 170.124C109.261 168.761 108.558 166.908 108.55 164.973V159.716C103.571 160.332 86.5202 160.189 81.6328 159.321V164.763C81.6196 166.696 80.9154 168.546 79.6737 169.908C78.4319 171.271 76.7533 172.035 75.0037 172.035C73.2542 172.035 71.5755 171.271 70.3338 169.908C69.092 168.546 68.3878 166.696 68.3747 164.763V154.079C61.755 150.014 56.2366 144.071 52.3889 136.861C48.5412 129.652 46.5037 121.438 46.4866 113.068C46.4866 98.716 52.3711 85.3275 62.6313 76.3356C69.3025 70.4694 77.4078 66.9414 85.9064 66.2049C87.0599 66.1049 88.2205 66.0543 89.356 66.0543C93.3564 66.0543 111.405 66.7373 115.934 68.1774L126.26 56.8519C126.412 56.6831 126.606 56.5682 126.817 56.5216C127.028 56.4751 127.247 56.4992 127.445 56.5907C127.646 56.6788 127.817 56.8317 127.937 57.0294C128.058 57.2272 128.121 57.4604 128.119 57.6987V59.4994L130.13 57.2983C130.281 57.1293 130.475 57.0142 130.686 56.9676C130.897 56.921 131.116 56.9451 131.314 57.0367C131.515 57.1247 131.686 57.2777 131.807 57.4755C131.927 57.6733 131.99 57.9067 131.988 58.145V78.2677C137.17 83.4309 141.119 89.9272 143.486 97.1808C145.853 104.434 146.564 112.221 145.557 119.852C144.551 127.482 141.856 134.72 137.714 140.924C133.571 147.128 128.108 152.107 121.808 155.419V164.973C121.799 166.908 121.097 168.761 119.854 170.124C118.611 171.488 116.93 172.25 115.179 172.245ZM109.071 159.063V164.973C109.084 166.754 109.733 168.457 110.877 169.711C112.021 170.965 113.568 171.669 115.179 171.669C116.79 171.669 118.336 170.965 119.48 169.711C120.624 168.457 121.274 166.754 121.287 164.973V155.055L121.435 154.977C128.504 151.27 134.505 145.469 138.772 138.22C144.208 128.969 146.469 117.872 145.146 106.938C143.822 96.0043 139 85.9555 131.554 78.6105L131.467 78.5246V58.145C131.469 58.0212 131.437 57.8997 131.374 57.7969C131.312 57.6942 131.222 57.6151 131.118 57.5702C131.014 57.5212 130.899 57.5079 130.788 57.5323C130.678 57.5566 130.576 57.6173 130.497 57.7065L127.598 60.8807V57.6986C127.6 57.5748 127.567 57.4533 127.505 57.3506C127.442 57.2478 127.353 57.1687 127.248 57.1239C127.144 57.0749 127.029 57.0618 126.918 57.0863C126.807 57.1108 126.706 57.1717 126.627 57.2611L116.08 68.8291L115.93 68.7773C111.72 67.3208 93.3868 66.6303 89.356 66.6303C88.234 66.6303 87.0871 66.6804 85.9473 66.7792C77.552 67.5067 69.5451 70.9918 62.9552 76.7869C52.8203 85.6689 47.0077 98.8929 47.0077 113.068C47.025 121.364 49.0516 129.504 52.8771 136.642C56.7025 143.78 62.1872 149.655 68.7614 153.658L68.8958 153.74V164.763C68.9093 166.543 69.5587 168.246 70.7027 169.5C71.8467 170.754 73.3926 171.458 75.0037 171.458C76.6149 171.458 78.1608 170.754 79.3048 169.5C80.4487 168.246 81.0982 166.543 81.1116 164.763V158.632L81.4203 158.696C85.8125 159.609 104.307 159.753 108.777 159.105L109.071 159.063Z" fill="#3F3D56"/>
<path d="M96.5636 24C91.8235 24.002 87.2701 26.0427 83.8672 29.6901C80.4643 33.3375 78.4789 38.3054 78.3312 43.5423C78.326 43.7468 78.3235 43.9542 78.3235 44.1616C78.3235 48.1492 79.3932 52.0472 81.3975 55.3628C83.4017 58.6783 86.2505 61.2625 89.5834 62.7885C92.9163 64.3144 96.5838 64.7137 100.122 63.9358C103.66 63.1578 106.91 61.2376 109.461 58.418C112.012 55.5983 113.749 52.0059 114.453 48.0949C115.157 44.184 114.796 40.1301 113.415 36.4461C112.035 32.762 109.697 29.6132 106.697 27.3978C103.698 25.1825 100.171 24 96.5636 24ZM96.5636 63.7471C91.8657 63.7417 87.3617 61.6765 84.0398 58.0047C80.7179 54.3329 78.8495 49.3543 78.8446 44.1616C78.8446 43.8937 78.8498 43.6287 78.8603 43.3666C79.0014 39.5301 80.1596 35.8241 82.191 32.7094C84.2224 29.5946 87.0372 27.2086 90.2856 25.848C93.5339 24.4874 97.0724 24.2123 100.461 25.0568C103.85 25.9013 106.939 27.8282 109.345 30.5979C111.751 33.3676 113.367 36.8579 113.993 40.6348C114.618 44.4117 114.226 48.3085 112.864 51.8408C111.502 55.3731 109.231 58.3849 106.333 60.5018C103.434 62.6187 100.037 63.7472 96.5636 63.7471Z" fill="#3F3D56"/>
<path d="M111.937 44.1616C111.937 48.6685 110.318 52.9908 107.434 56.1777C104.551 59.3646 100.641 61.1549 96.5635 61.1549C92.4861 61.1549 88.5757 59.3646 85.6926 56.1777C82.8094 52.9908 81.1897 48.6685 81.1897 44.1616C81.1897 43.623 81.2131 43.093 81.2574 42.5688C81.6279 38.2192 83.4997 34.1944 86.4842 31.3301C89.4687 28.4658 93.3366 26.9821 97.2848 27.1871C101.233 27.392 104.958 29.2699 107.686 32.4308C110.415 35.5917 111.937 39.7927 111.937 44.1616Z" fill="#E6E6E6"/>
<path d="M101.142 45.2906C100.769 44.7491 100.279 44.3201 99.7166 44.0435C99.0229 43.7204 98.3065 43.4603 97.5746 43.2658V38.6402C98.6997 38.8277 99.7548 39.3595 100.621 40.1753L101.47 38.1736C100.982 37.6925 100.421 37.3094 99.8129 37.0417C99.1391 36.7401 98.4319 36.5396 97.7101 36.4455V34.101H95.7428V36.4685C94.9831 36.5628 94.2503 36.8348 93.5931 37.2663C92.9994 37.6547 92.4996 38.1963 92.1364 38.8447C91.7898 39.4774 91.6102 40.2047 91.6179 40.9444C91.5841 41.7459 91.7941 42.5369 92.2146 43.1909C92.6017 43.7573 93.1128 44.2053 93.6998 44.4928C94.4046 44.8255 95.1333 45.0924 95.8783 45.2906V49.7233C94.5507 49.6126 93.2856 49.0547 92.2537 48.1248L91.4043 50.1294C91.9813 50.6567 92.6374 51.0681 93.3429 51.3449C94.116 51.6507 94.9236 51.8368 95.7428 51.8979V54.2222H97.7101V51.8547C98.8028 51.7227 99.8276 51.2033 100.631 50.3742C100.985 49.9991 101.265 49.5469 101.452 49.0461C101.64 48.5454 101.731 48.007 101.72 47.4652C101.753 46.6892 101.549 45.9235 101.142 45.2906ZM95.8783 42.7762C95.3991 42.6156 94.9535 42.3512 94.5676 41.9985C94.4147 41.8481 94.2938 41.6622 94.2136 41.454C94.1334 41.2459 94.0959 41.0207 94.1038 40.7946C94.0896 40.2816 94.2601 39.7833 94.578 39.4092C94.9304 39.0167 95.3851 38.7559 95.8783 38.6632V42.7762ZM98.8098 48.9053C98.4773 49.2822 98.0445 49.5314 97.5746 49.6167V45.8033C98.0237 45.9365 98.4439 46.1687 98.8098 46.4859C98.9484 46.6169 99.0587 46.7807 99.1322 46.9652C99.2057 47.1497 99.2407 47.3501 99.2345 47.5516C99.2526 48.0459 99.1008 48.5295 98.8098 48.9053Z" fill="black"/>
<path d="M48.2846 98.67C44.649 98.0763 41.172 96.6231 38.0905 94.4095C36.5638 93.3137 35.1505 92.036 33.876 90.5995C32.618 89.1811 31.4145 87.5691 30.7914 85.6803C30.1918 83.9327 30.2227 81.9974 30.8777 80.2743C31.5237 78.5617 32.7577 77.2022 34.3091 76.4938C35.8698 75.8058 37.7555 75.7323 39.2744 76.4857C39.9982 76.8364 40.6246 77.3936 41.0891 78.1003C41.3051 78.4261 41.465 78.793 41.5608 79.1827C41.6498 79.5359 41.6579 79.908 41.5844 80.2655C41.4953 80.6223 41.3382 80.954 41.1237 81.2383C40.9092 81.5226 40.6421 81.7529 40.3404 81.9138C39.6765 82.2903 38.9572 82.5328 38.2162 82.6299C37.471 82.7422 36.4004 82.8444 35.8012 82.1832C35.6779 82.0524 35.5809 81.8943 35.5165 81.7192C35.4715 81.5852 35.4561 81.4412 35.4716 81.2993C35.4629 81.3618 35.5078 81.1632 35.5052 81.1712C35.4957 81.2005 35.4547 81.2721 35.513 81.1621C35.5312 81.1259 35.5515 81.091 35.5738 81.0576C35.554 81.0859 35.5105 81.1331 35.5881 81.0521C35.6523 80.9744 35.7348 80.9181 35.8264 80.8895C35.8624 80.8779 35.899 80.8686 35.9352 80.8577C36.0271 80.83 35.8436 80.8592 35.9376 80.8559C35.9739 80.8546 36.0106 80.8556 36.0468 80.8538C36.139 80.8492 35.9558 80.826 36.0442 80.8506C36.0785 80.8601 36.1125 80.8694 36.1463 80.8812C36.2198 80.9068 36.0943 80.8216 36.1441 80.8854C36.2025 80.9601 36.0828 80.8127 36.1492 80.885C36.1822 80.9209 36.2133 80.9588 36.2423 80.9986C36.3574 81.1242 36.5126 81.1945 36.6742 81.1945C36.8359 81.1945 36.9911 81.1242 37.1061 80.9986C37.2173 80.87 37.2793 80.699 37.2793 80.5212C37.2793 80.3434 37.2173 80.1724 37.1061 80.0438C36.5039 79.2185 35.3142 79.4224 34.7049 80.1199C33.9279 81.0095 34.2356 82.4193 34.9914 83.1955C35.847 84.0741 37.0589 84.1352 38.1595 83.9878C39.0897 83.8894 39.9962 83.6062 40.8354 83.152C41.6693 82.6991 42.3215 81.9203 42.6657 80.9664C42.8211 80.4574 42.8769 79.9176 42.8294 79.3829C42.782 78.8482 42.6323 78.3307 42.3904 77.8647C41.4186 75.8454 39.4065 74.81 37.4175 74.6307C36.3935 74.5421 35.3638 74.6787 34.3879 75.0329C33.412 75.387 32.5094 75.9515 31.7321 76.6938C30.2341 78.1845 29.3117 80.2545 29.1555 82.4758C28.9819 84.7789 29.7903 87.0154 30.9689 88.8741C32.2028 90.7625 33.6752 92.4456 35.3412 93.8722C38.5982 96.7464 42.4187 98.738 46.4968 99.6876C46.9819 99.7984 47.4696 99.8932 47.9599 99.972C48.1159 100.014 48.2805 99.9883 48.42 99.9007C48.5596 99.8131 48.6638 99.67 48.7112 99.5005C48.7531 99.3279 48.7318 99.144 48.652 98.9886C48.5722 98.8331 48.4402 98.7187 48.2846 98.67L48.2846 98.67Z" fill="#3F3D56"/>
<path d="M96.6432 74.136C96.0675 74.136 82.5447 74.1122 82.5447 72.0475C82.5447 69.983 96.0675 69.9592 96.6432 69.9592C97.2188 69.9592 110.742 69.983 110.742 72.0475C110.742 74.1122 97.2188 74.136 96.6432 74.136ZM83.0735 72.0475C83.4435 72.6735 88.4142 73.5599 96.6432 73.5599C104.872 73.5599 109.843 72.6735 110.213 72.0475C109.843 71.4217 104.872 70.5353 96.6432 70.5353C88.4142 70.5353 83.4435 71.4217 83.0735 72.0475V72.0475Z" fill="#3F3D56"/>
<path d="M141.524 127.455C144.518 127.364 148.243 127.249 151.114 124.931C151.968 124.213 152.671 123.297 153.171 122.247C153.672 121.197 153.958 120.038 154.011 118.853C154.07 117.023 153.472 115.425 152.327 114.356C150.828 112.956 148.639 112.627 146.28 113.393L148.724 93.6501L146.93 93.3784L144.056 116.589L145.554 115.829C147.292 114.949 149.676 114.5 151.158 115.884C151.522 116.246 151.805 116.696 151.986 117.199C152.167 117.701 152.241 118.243 152.202 118.783C152.158 119.665 151.942 120.526 151.57 121.308C151.198 122.09 150.678 122.775 150.045 123.315C147.812 125.118 144.842 125.351 141.474 125.455L141.524 127.455Z" fill="#3F3D56"/>
<path d="M136.563 95.3528H126.81V97.3546H136.563V95.3528Z" fill="#3F3D56"/>
</g>
<defs>
<clipPath id="clip0">
<rect width="193" height="172" fill="white"/>
</clipPath>
</defs>
</svg>
